<mxfile host="65bd71144e">
<diagram id="JPszrsa7NkP3LcdA_txE" name="PÃ¡gina-1">
<mxGraphModel dx="322" dy="417" grid="1" gridSize="10" guides="1" tooltips="1" connect="1" arrows="1" fold="1" page="1" pageScale="1" pageWidth="2000" pageHeight="1300" math="0" shadow="0">
<root>
<mxCell id="0"/>

    <mxCell id="1" parent="0"/>

<object id="31223c4e-8210-4140-a36b-9accde8a55f5" text="M1: teste" type="istar.Actor" x="355" y="135" MR_Description=""><mxCell value="" style="swimlane;startSize=0;pointerEvents=0;fontFamily=Helvetica;fontSize=12;fontColor=default;fillColor=none;gradientColor=none;autosize=1;" parent="1" vertex="1"><mxGeometry x="170" y="90" width="380" height="350" as="geometry"><mxRectangle x="190" y="120" width="50" height="40" as="alternateBounds"/></mxGeometry></mxCell></object>
<object id="66b89690-6933-4962-aeb1-79958c65f99b" x="578" y="167" type="istar.Goal" parent="31223c4e-8210-4140-a36b-9accde8a55f5" label="G1: Deliver Food to Patients [G2;G3]" MR_Description="teste"><mxCell style="html=1;dashed=0;whiteSpace=wrap;shape=mxgraph.dfd.start;pointerEvents=0;fontFamily=Helvetica;fontSize=12;fillColor=#d5e8d4;strokeColor=#82b366;fontColor=#000000;autosize=1;fixedWidth=0;" vertex="1" parent="31223c4e-8210-4140-a36b-9accde8a55f5"><mxGeometry width="80" height="30" as="geometry" x="578" y="167"/></mxCell></object>
<object id="90bb6cd3-5df4-4ed1-b944-11eadd4ea888" x="355" y="268" type="istar.Goal" parent="31223c4e-8210-4140-a36b-9accde8a55f5" label="G2: Fetch Rooms That Need Food Delivering" MR_Description="" MR_GoalType="Query" MR_QueriedProperty="world_db->select(d:Delivery | )" MR_Controls="active_deliveries : Sequence(Delivery)"><mxCell style="html=1;dashed=0;whiteSpace=wrap;shape=mxgraph.dfd.start;pointerEvents=0;fontFamily=Helvetica;fontSize=12;fillColor=#d5e8d4;strokeColor=#82b366;fontColor=#000000;autosize=1;fixedWidth=0;" vertex="1" parent="31223c4e-8210-4140-a36b-9accde8a55f5"><mxGeometry width="80" height="30" as="geometry" x="355" y="268"/></mxCell></object>
<object id="004f44de-5fa5-41e8-bff6-4c7f64126dd7" x="1046" y="375" type="istar.Goal" parent="31223c4e-8210-4140-a36b-9accde8a55f5" label="G7: Deliver Food [G8;G9;G10]" MR_Description=""><mxCell style="html=1;dashed=0;whiteSpace=wrap;shape=mxgraph.dfd.start;pointerEvents=0;fontFamily=Helvetica;fontSize=12;fillColor=#d5e8d4;strokeColor=#82b366;fontColor=#000000;autosize=1;fixedWidth=0;" vertex="1" parent="31223c4e-8210-4140-a36b-9accde8a55f5"><mxGeometry width="80" height="30" as="geometry" x="1046" y="375"/></mxCell></object>
<object id="23b13cdd-3a6d-4272-a1c9-f26b837a1ffc" x="911" y="479" type="istar.Goal" parent="31223c4e-8210-4140-a36b-9accde8a55f5" label="G8: Fetch Delivery's Patient" MR_Description="" MR_GoalType="Query" MR_QueriedProperty="world_db->select(p:Patient | p.name in current_delivery.patient)" MR_Controls="current_patient : Patient" MR_Monitors="current_delivery"><mxCell style="html=1;dashed=0;whiteSpace=wrap;shape=mxgraph.dfd.start;pointerEvents=0;fontFamily=Helvetica;fontSize=12;fillColor=#d5e8d4;strokeColor=#82b366;fontColor=#000000;autosize=1;fixedWidth=0;" vertex="1" parent="31223c4e-8210-4140-a36b-9accde8a55f5"><mxGeometry width="80" height="30" as="geometry" x="911" y="479"/></mxCell></object>
<object id="e2c04472-6144-49fb-8ddc-8f145752cf5a" x="834" y="266" type="istar.Goal" parent="31223c4e-8210-4140-a36b-9accde8a55f5" label="G3: Get Foods and Deliver Them in Rooms [G4;G7]" MR_Description="" MR_GoalType="Achieve" MR_AchieveCondition="active_deliveries->forAll(current_delivery | )" MR_Monitors="active_deliveries" MR_Controls="current_delivery : Delivery" MR_Group="True" MR_Divisible="False"><mxCell style="html=1;dashed=0;whiteSpace=wrap;shape=mxgraph.dfd.start;pointerEvents=0;fontFamily=Helvetica;fontSize=12;fillColor=#d5e8d4;strokeColor=#82b366;fontColor=#000000;autosize=1;fixedWidth=0;" vertex="1" parent="31223c4e-8210-4140-a36b-9accde8a55f5"><mxGeometry width="80" height="30" as="geometry" x="834" y="266"/></mxCell></object>
<object id="0ff610ea-6ef7-41a3-be8e-5799a068a3d1" x="1282" y="563" type="istar.Goal" parent="31223c4e-8210-4140-a36b-9accde8a55f5" label="G12: Food Fetched From Robot Tray" MR_Description="" MR_Monitors="current_patient, delivery_room"><mxCell style="html=1;dashed=0;whiteSpace=wrap;shape=mxgraph.dfd.start;pointerEvents=0;fontFamily=Helvetica;fontSize=12;fillColor=#d5e8d4;strokeColor=#82b366;fontColor=#000000;autosize=1;fixedWidth=0;" vertex="1" parent="31223c4e-8210-4140-a36b-9accde8a55f5"><mxGeometry width="80" height="30" as="geometry" x="1282" y="563"/></mxCell></object>
<object id="ed27bb08-c519-4040-b4a8-19fe22418796" x="622" y="374" type="istar.Goal" parent="31223c4e-8210-4140-a36b-9accde8a55f5" label="G4: Get Food In Kitchen [G5;G6]" MR_Description=""><mxCell style="html=1;dashed=0;whiteSpace=wrap;shape=mxgraph.dfd.start;pointerEvents=0;fontFamily=Helvetica;fontSize=12;fillColor=#d5e8d4;strokeColor=#82b366;fontColor=#000000;autosize=1;fixedWidth=0;" vertex="1" parent="31223c4e-8210-4140-a36b-9accde8a55f5"><mxGeometry width="80" height="30" as="geometry" x="622" y="374"/></mxCell></object>
<object id="c4665492-cff8-4cc6-a874-1cdba42f668e" x="524" y="467" type="istar.Goal" parent="31223c4e-8210-4140-a36b-9accde8a55f5" label="G5: Fetch Kitchen Location" MR_Description="" MR_GoalType="Query" MR_QueriedProperty="world_db->select(l:Location | l.name = &quot;Kitchen&quot;)" MR_Controls="kitchen_loc : Location"><mxCell style="html=1;dashed=0;whiteSpace=wrap;shape=mxgraph.dfd.start;pointerEvents=0;fontFamily=Helvetica;fontSize=12;fillColor=#d5e8d4;strokeColor=#82b366;fontColor=#000000;autosize=1;fixedWidth=0;" vertex="1" parent="31223c4e-8210-4140-a36b-9accde8a55f5"><mxGeometry width="80" height="30" as="geometry" x="524" y="467"/></mxCell></object>
<object id="0184bda0-2a89-4a14-8f36-51bf1d0d6e9c" x="696" y="469" type="istar.Goal" parent="31223c4e-8210-4140-a36b-9accde8a55f5" label="G6: Get Food In Kitchen" MR_Description="" MR_Monitors="kitchen_loc, current_delivery"><mxCell style="html=1;dashed=0;whiteSpace=wrap;shape=mxgraph.dfd.start;pointerEvents=0;fontFamily=Helvetica;fontSize=12;fillColor=#d5e8d4;strokeColor=#82b366;fontColor=#000000;autosize=1;fixedWidth=0;" vertex="1" parent="31223c4e-8210-4140-a36b-9accde8a55f5"><mxGeometry width="80" height="30" as="geometry" x="696" y="469"/></mxCell></object>
<object id="a51d3961-56b4-4bbe-b048-286eef924ae4" x="695" y="560" type="istar.Task" parent="31223c4e-8210-4140-a36b-9accde8a55f5" label="AT1: GetFood" MR_Description="" MR_Location="kitchen_loc" MR_Params="current_delivery"><mxCell style="shape=hexagon;perimeter=hexagonPerimeter2;whiteSpace=wrap;html=1;size=0.25;pointerEvents=0;fontFamily=Helvetica;fontSize=12;fillColor=#d5e8d4;strokeColor=#82b366;fontColor=#030303;" vertex="1" parent="31223c4e-8210-4140-a36b-9accde8a55f5"><mxGeometry width="80" height="30" as="geometry" x="695" y="560"/></mxCell></object>
<object id="43540617-7849-4cf3-99e4-e93d21085b6f" x="1056" y="480" type="istar.Goal" parent="31223c4e-8210-4140-a36b-9accde8a55f5" label="G9: Fetch Delivery's Room" MR_Description="" MR_GoalType="Query" MR_QueriedProperty="world_db->select(r:Location | r.name in current_delivery.delivery_location)" MR_Controls="delivery_room : Location" MR_Monitors="current_delivery"><mxCell style="html=1;dashed=0;whiteSpace=wrap;shape=mxgraph.dfd.start;pointerEvents=0;fontFamily=Helvetica;fontSize=12;fillColor=#d5e8d4;strokeColor=#82b366;fontColor=#000000;autosize=1;fixedWidth=0;" vertex="1" parent="31223c4e-8210-4140-a36b-9accde8a55f5"><mxGeometry width="80" height="30" as="geometry" x="1056" y="480"/></mxCell></object>
<object id="496e2545-7b54-4568-a6d1-2e616cbe7537" x="1152" y="560" type="istar.Goal" parent="31223c4e-8210-4140-a36b-9accde8a55f5" label="G11: Deliver Food To Room Table" MR_Description="" MR_Monitors="delivery_room, current_patient"><mxCell style="html=1;dashed=0;whiteSpace=wrap;shape=mxgraph.dfd.start;pointerEvents=0;fontFamily=Helvetica;fontSize=12;fillColor=#d5e8d4;strokeColor=#82b366;fontColor=#000000;autosize=1;fixedWidth=0;" vertex="1" parent="31223c4e-8210-4140-a36b-9accde8a55f5"><mxGeometry width="80" height="30" as="geometry" x="1152" y="560"/></mxCell></object>
<object id="c6f57ba9-a58d-4fa3-9bb2-6a18103975c9" x="1156" y="664" type="istar.Task" parent="31223c4e-8210-4140-a36b-9accde8a55f5" label="AT2: DeliverToTable" MR_Description="" MR_Location="delivery_room" MR_Params="current_patient"><mxCell style="shape=hexagon;perimeter=hexagonPerimeter2;whiteSpace=wrap;html=1;size=0.25;pointerEvents=0;fontFamily=Helvetica;fontSize=12;fillColor=#d5e8d4;strokeColor=#82b366;fontColor=#030303;" vertex="1" parent="31223c4e-8210-4140-a36b-9accde8a55f5"><mxGeometry width="80" height="30" as="geometry" x="1156" y="664"/></mxCell></object>
<object id="2618fc4a-bdeb-459a-a40c-8d2f315db5d5" x="1292" y="667" type="istar.Task" parent="31223c4e-8210-4140-a36b-9accde8a55f5" label="AT3: DeliverToFetch" MR_Description="" MR_RobotNumber="[1,2]" MR_Location="delivery_room" MR_Params="current_patient"><mxCell style="shape=hexagon;perimeter=hexagonPerimeter2;whiteSpace=wrap;html=1;size=0.25;pointerEvents=0;fontFamily=Helvetica;fontSize=12;fillColor=#d5e8d4;strokeColor=#82b366;fontColor=#030303;" vertex="1" parent="31223c4e-8210-4140-a36b-9accde8a55f5"><mxGeometry width="80" height="30" as="geometry" x="1292" y="667"/></mxCell></object>
<object id="16ceb27e-114a-419d-92c0-1a96e5d3c2d3" x="1215" y="478" type="istar.Goal" parent="31223c4e-8210-4140-a36b-9accde8a55f5" label="G10: Deliver Food To Patient" MR_Description=""><mxCell style="html=1;dashed=0;whiteSpace=wrap;shape=mxgraph.dfd.start;pointerEvents=0;fontFamily=Helvetica;fontSize=12;fillColor=#d5e8d4;strokeColor=#82b366;fontColor=#000000;autosize=1;fixedWidth=0;" vertex="1" parent="31223c4e-8210-4140-a36b-9accde8a55f5"><mxGeometry width="80" height="30" as="geometry" x="1215" y="478"/></mxCell></object>
<mxCell id="8955c333-dbdd-4fd3-bd9d-6ae39d522eb6" type="istar.AndRefinementLink" style="edgeStyle=none;html=1;entryX=0.5;entryY=0.5;entryDx=0;entryDy=15;entryPerimeter=0;endArrow=ERone;endFill=0;" edge="1" parent="31223c4e-8210-4140-a36b-9accde8a55f5" source="e2c04472-6144-49fb-8ddc-8f145752cf5a" target="66b89690-6933-4962-aeb1-79958c65f99b"><mxGeometry relative="1" as="geometry"/></mxCell>
<mxCell id="2" type="istar.AndRefinementLink" style="edgeStyle=none;html=1;entryX=0.5;entryY=0.5;entryDx=0;entryDy=15;entryPerimeter=0;endArrow=ERone;endFill=0;" edge="1" parent="31223c4e-8210-4140-a36b-9accde8a55f5" source="90bb6cd3-5df4-4ed1-b944-11eadd4ea888" target="66b89690-6933-4962-aeb1-79958c65f99b"><mxGeometry relative="1" as="geometry"/></mxCell>
<mxCell id="22cdcdee-2849-4a97-86a8-76734d5fb6bc" type="istar.AndRefinementLink" style="edgeStyle=none;html=1;entryX=0.5;entryY=0.5;entryDx=0;entryDy=15;entryPerimeter=0;endArrow=ERone;endFill=0;" edge="1" parent="31223c4e-8210-4140-a36b-9accde8a55f5" source="23b13cdd-3a6d-4272-a1c9-f26b837a1ffc" target="004f44de-5fa5-41e8-bff6-4c7f64126dd7"><mxGeometry relative="1" as="geometry"/></mxCell>
<mxCell id="efa46fb0-7fa5-4498-addf-8da6bd884bd1" type="istar.AndRefinementLink" style="edgeStyle=none;html=1;entryX=0.5;entryY=0.5;entryDx=0;entryDy=15;entryPerimeter=0;endArrow=ERone;endFill=0;" edge="1" parent="31223c4e-8210-4140-a36b-9accde8a55f5" source="43540617-7849-4cf3-99e4-e93d21085b6f" target="004f44de-5fa5-41e8-bff6-4c7f64126dd7"><mxGeometry relative="1" as="geometry"/></mxCell>
<mxCell id="ddc58cd8-756f-428e-ac19-2338c0214684" type="istar.AndRefinementLink" style="edgeStyle=none;html=1;entryX=0.5;entryY=0.5;entryDx=0;entryDy=15;entryPerimeter=0;endArrow=ERone;endFill=0;" edge="1" parent="31223c4e-8210-4140-a36b-9accde8a55f5" source="16ceb27e-114a-419d-92c0-1a96e5d3c2d3" target="004f44de-5fa5-41e8-bff6-4c7f64126dd7"><mxGeometry relative="1" as="geometry"/></mxCell>
<mxCell id="02ea5727-8ab8-4f16-923e-552eb2e24775" type="istar.AndRefinementLink" style="edgeStyle=none;html=1;entryX=0.5;entryY=0.5;entryDx=0;entryDy=15;entryPerimeter=0;endArrow=ERone;endFill=0;" edge="1" parent="31223c4e-8210-4140-a36b-9accde8a55f5" source="004f44de-5fa5-41e8-bff6-4c7f64126dd7" target="e2c04472-6144-49fb-8ddc-8f145752cf5a"><mxGeometry relative="1" as="geometry"/></mxCell>
<mxCell id="67d61b06-2980-40de-ad73-cc92b15264e9" type="istar.AndRefinementLink" style="edgeStyle=none;html=1;entryX=0.5;entryY=0.5;entryDx=0;entryDy=15;entryPerimeter=0;endArrow=ERone;endFill=0;" edge="1" parent="31223c4e-8210-4140-a36b-9accde8a55f5" source="ed27bb08-c519-4040-b4a8-19fe22418796" target="e2c04472-6144-49fb-8ddc-8f145752cf5a"><mxGeometry relative="1" as="geometry"/></mxCell>
<mxCell id="78360ecd-b3c7-4cf7-a961-a877a40df8fc" type="istar.AndRefinementLink" style="edgeStyle=none;html=1;entryX=0.5;entryY=0.5;entryDx=0;entryDy=15;entryPerimeter=0;endArrow=ERone;endFill=0;" edge="1" parent="31223c4e-8210-4140-a36b-9accde8a55f5" source="2618fc4a-bdeb-459a-a40c-8d2f315db5d5" target="0ff610ea-6ef7-41a3-be8e-5799a068a3d1"><mxGeometry relative="1" as="geometry"/></mxCell>
<mxCell id="84c0b010-eff2-44ee-be21-5e8869ad3ec3" type="istar.AndRefinementLink" style="edgeStyle=none;html=1;entryX=0.5;entryY=0.5;entryDx=0;entryDy=15;entryPerimeter=0;endArrow=ERone;endFill=0;" edge="1" parent="31223c4e-8210-4140-a36b-9accde8a55f5" source="c4665492-cff8-4cc6-a874-1cdba42f668e" target="ed27bb08-c519-4040-b4a8-19fe22418796"><mxGeometry relative="1" as="geometry"/></mxCell>
<mxCell id="72270d14-d492-464f-adf8-8ddd8ca64e05" type="istar.AndRefinementLink" style="edgeStyle=none;html=1;entryX=0.5;entryY=0.5;entryDx=0;entryDy=15;entryPerimeter=0;endArrow=ERone;endFill=0;" edge="1" parent="31223c4e-8210-4140-a36b-9accde8a55f5" source="0184bda0-2a89-4a14-8f36-51bf1d0d6e9c" target="ed27bb08-c519-4040-b4a8-19fe22418796"><mxGeometry relative="1" as="geometry"/></mxCell>
<mxCell id="106daebe-85e2-4804-8660-4817f1a262a8" type="istar.AndRefinementLink" style="edgeStyle=none;html=1;entryX=0.5;entryY=0.5;entryDx=0;entryDy=15;entryPerimeter=0;endArrow=ERone;endFill=0;" edge="1" parent="31223c4e-8210-4140-a36b-9accde8a55f5" source="a51d3961-56b4-4bbe-b048-286eef924ae4" target="0184bda0-2a89-4a14-8f36-51bf1d0d6e9c"><mxGeometry relative="1" as="geometry"/></mxCell>
<mxCell id="e522b3e5-93ea-44ef-a192-1d8921bb9105" type="istar.AndRefinementLink" style="edgeStyle=none;html=1;entryX=0.5;entryY=0.5;entryDx=0;entryDy=15;entryPerimeter=0;endArrow=ERone;endFill=0;" edge="1" parent="31223c4e-8210-4140-a36b-9accde8a55f5" source="c6f57ba9-a58d-4fa3-9bb2-6a18103975c9" target="496e2545-7b54-4568-a6d1-2e616cbe7537"><mxGeometry relative="1" as="geometry"/></mxCell>
<mxCell id="74dd8d0a-205e-4d33-8791-fa0f3f5599fa" type="istar.AndRefinementLink" style="edgeStyle=none;html=1;entryX=0.5;entryY=0.5;entryDx=0;entryDy=15;entryPerimeter=0;endArrow=ERone;endFill=0;" edge="1" parent="31223c4e-8210-4140-a36b-9accde8a55f5" source="496e2545-7b54-4568-a6d1-2e616cbe7537" target="16ceb27e-114a-419d-92c0-1a96e5d3c2d3"><mxGeometry relative="1" as="geometry"/></mxCell>
<mxCell id="ca0cefc2-36e9-45be-8b2e-1e87c171aa4d" type="istar.AndRefinementLink" style="edgeStyle=none;html=1;entryX=0.5;entryY=0.5;entryDx=0;entryDy=15;entryPerimeter=0;endArrow=ERone;endFill=0;" edge="1" parent="31223c4e-8210-4140-a36b-9accde8a55f5" source="0ff610ea-6ef7-41a3-be8e-5799a068a3d1" target="16ceb27e-114a-419d-92c0-1a96e5d3c2d3"><mxGeometry relative="1" as="geometry"/></mxCell>
</root>
</mxGraphModel>
</diagram>
</mxfile>
<fileInfo teste="teste"></fileInfo>